HIERARCHY
ROOT Hips
{
	OFFSET 0.00000 0.00000 0.00000
	CHANNELS 6 Xposition Yposition Zposition Zrotation Yrotation Xrotation 
	JOINT LHipJoint
	{
		OFFSET 0 0 0
		CHANNELS 3 Zrotation Yrotation Xrotation
		JOINT LeftUpLeg
		{
			OFFSET 1.36443 -1.53315 0.80540
			CHANNELS 3 Zrotation Yrotation Xrotation
			JOINT LeftLeg
			{
				OFFSET 2.27494 -6.25036 0.00000
				CHANNELS 3 Zrotation Yrotation Xrotation
				JOINT LeftFoot
				{
					OFFSET 2.17461 -5.97470 0.00000
					CHANNELS 3 Zrotation Yrotation Xrotation
					JOINT LeftToeBase
					{
						OFFSET 0.22144 -0.60841 2.08966
						CHANNELS 3 Zrotation Yrotation Xrotation
						End Site
						{
							OFFSET 0.00000 -0.00000 1.09206
						}
					}
				}
			}
		}
	}
	JOINT RHipJoint
	{
		OFFSET 0 0 0
		CHANNELS 3 Zrotation Yrotation Xrotation
		JOINT RightUpLeg
		{
			OFFSET -1.29957 -1.53315 0.80539
			CHANNELS 3 Zrotation Yrotation Xrotation
			JOINT RightLeg
			{
				OFFSET -2.23917 -6.15209 0.00000
				CHANNELS 3 Zrotation Yrotation Xrotation
				JOINT RightFoot
				{
					OFFSET -2.18029 -5.99030 0.00000
					CHANNELS 3 Zrotation Yrotation Xrotation
					JOINT RightToeBase
					{
						OFFSET -0.22354 -0.61416 1.89975
						CHANNELS 3 Zrotation Yrotation Xrotation
						End Site
						{
							OFFSET -0.00000 -0.00000 1.00221
						}
					}
				}
			}
		}
	}
	JOINT LowerBack
	{
		OFFSET 0 0 0
		CHANNELS 3 Zrotation Yrotation Xrotation
		JOINT Spine
		{
			OFFSET -0.04725 2.10352 -0.01215
			CHANNELS 3 Zrotation Yrotation Xrotation
			JOINT Spine1
			{
				OFFSET 0.04471 2.09612 -0.07192
				CHANNELS 3 Zrotation Yrotation Xrotation
				JOINT Neck
				{
					OFFSET 0 0 0
					CHANNELS 3 Zrotation Yrotation Xrotation
					JOINT Neck1
					{
						OFFSET -0.01586 1.38087 0.11506
						CHANNELS 3 Zrotation Yrotation Xrotation
						JOINT Head
						{
							OFFSET -0.01055 1.38869 -0.12115
							CHANNELS 3 Zrotation Yrotation Xrotation
							End Site
							{
								OFFSET -0.00310 1.39537 -0.05348
							}
						}
					}
				}
				JOINT LeftShoulder
				{
					OFFSET 0 0 0
					CHANNELS 3 Zrotation Yrotation Xrotation
					JOINT LeftArm
					{
						OFFSET 2.71932 0.62535 0.37316
						CHANNELS 3 Zrotation Yrotation Xrotation
						JOINT LeftForeArm
						{
							OFFSET 4.47366 -0.00000 0.00000
							CHANNELS 3 Zrotation Yrotation Xrotation
							JOINT LeftHand
							{
								OFFSET 3.19948 -0.00000 -0.00000
								CHANNELS 3 Zrotation Yrotation Xrotation
								JOINT LeftFingerBase
								{
									OFFSET 0 0 0
									CHANNELS 3 Zrotation Yrotation Xrotation
									JOINT LeftHandIndex1
									{
										OFFSET 0.49267 -0.00000 -0.00000
										CHANNELS 3 Zrotation Yrotation Xrotation
										End Site
										{
											OFFSET 0.39720 -0.00000 -0.00000
										}
									}
								}
								JOINT LThumb
								{
									OFFSET 0 0 0
									CHANNELS 3 Zrotation Yrotation Xrotation
									End Site
									{
										OFFSET 0.40327 -0.00000 0.40327
									}
								}
							}
						}
					}
				}
				JOINT RightShoulder
				{
					OFFSET 0 0 0
					CHANNELS 3 Zrotation Yrotation Xrotation
					JOINT RightArm
					{
						OFFSET -2.97334 0.70851 0.47631
						CHANNELS 3 Zrotation Yrotation Xrotation
						JOINT RightForeArm
						{
							OFFSET -4.32690 -0.00000 -0.00000
							CHANNELS 3 Zrotation Yrotation Xrotation
							JOINT RightHand
							{
								OFFSET -3.18960 -0.00000 0.00000
								CHANNELS 3 Zrotation Yrotation Xrotation
								JOINT RightFingerBase
								{
									OFFSET 0 0 0
									CHANNELS 3 Zrotation Yrotation Xrotation
									JOINT RightHandIndex1
									{
										OFFSET -0.46450 -0.00000 -0.00000
										CHANNELS 3 Zrotation Yrotation Xrotation
										End Site
										{
											OFFSET -0.37449 -0.00000 -0.00000
										}
									}
								}
								JOINT RThumb
								{
									OFFSET 0 0 0
									CHANNELS 3 Zrotation Yrotation Xrotation
									End Site
									{
										OFFSET -0.38021 -0.00000 0.38021
									}
								}
							}
						}
					}
				}
			}
		}
	}
}
MOTION
Frames: 15
Frame Time: 0.00952381
0.00 0.00 0.00 319.4750 126.2320 139.4180 0.0000 0.0000 0.0000 74.5582 -18.7755 -45.8227 2.7629 10.3010 29.9572 -178.4005 -63.6724 -50.5390 0.0004 0.1253 0.3441 0.0000 0.0000 0.0000 30.9905 -13.5990 1.9803 0.0000 -0.0000 0.0000 -1.6978 -3.9740 23.6828 -0.6725 5.2440 -14.6057 -18.4874 -1.1014 19.0363 -11.6263 -7.1185 2.2423 -0.7976 -3.3865 -7.7150 -4.6849 -5.0469 -19.6892 -9.5977 -5.6660 -1.2437 -2.6741 -3.5236 2.5654 0.0000 0.0000 0.0000 -24.4310 15.2673 -4.9806 70.4554 -58.5063 -43.1588 -0.0000 0.0000 -27.7265 22.3581 15.4718 6.2617 -7.1250 0.0000 -0.0000 -5.0259 46.5799 -0.1964 0.0000 0.0000 0.0000 -8.9536 4.2988 -72.6104 -18.6735 29.0109 -4.8715 0.0000 -0.0000 -4.3238 -93.8151 46.6190 -95.2423 7.1250 -0.0000 -0.0000 -159.2075 56.4462 -173.9831
0.00 0.00 0.00 322.5380 128.5550 140.3670 0.0000 0.0000 0.0000 63.6511 -27.8685 -35.0700 2.7180 10.2239 29.7049 -176.6512 -61.6363 -53.0748 0.0240 0.9994 2.7473 0.0000 0.0000 0.0000 27.8481 -8.9362 1.0207 0.0000 0.0000 -0.0000 -0.6327 -15.4890 16.7221 -0.3952 4.0364 -11.1790 -15.9194 -2.1269 18.4885 -9.2491 -7.9379 -0.3230 0.7235 -3.5036 -10.1892 -4.2124 -3.4717 -21.1863 -6.4634 -3.5659 -0.5890 -1.6616 -2.3138 3.0698 -0.0000 -0.0000 0.0000 -22.7595 -22.5274 -10.4408 86.4704 -59.9529 -56.9437 -0.0000 0.0000 -28.8746 51.7748 11.6814 14.4163 -7.1250 0.0000 -0.0000 23.7464 46.9660 1.2189 -0.0000 -0.0000 0.0000 -13.3955 14.4943 -71.1702 -21.6985 32.6347 -6.4225 0.0000 -0.0000 -1.3520 -96.9123 45.7447 -99.6068 7.1250 -0.0000 -0.0000 -160.0243 53.5573 -175.6613
0.00 0.00 0.00 329.7880 134.1150 143.7430 0.0000 0.0000 0.0000 45.7429 -31.9022 -17.8857 2.8428 10.4362 30.4011 -174.7350 -59.6128 -56.3353 0.0657 1.6539 4.5501 0.0000 0.0000 0.0000 25.4130 5.1896 -3.7140 -0.4700 -4.3973 12.1971 0.9942 -22.1802 6.6889 -0.3474 3.7873 -10.4790 -15.8608 -3.5578 19.0084 -5.6500 -9.9642 -3.6157 5.3091 -3.8514 -13.4218 -2.4836 0.4091 -25.1512 -4.8125 0.9812 -2.1357 -1.0534 -0.0608 3.1936 -0.0000 0.0000 0.0000 4.9263 -60.2405 -28.6343 51.5362 -53.5966 -27.4058 -0.0000 0.0000 -27.3444 52.9045 8.3589 10.8824 -7.1250 0.0000 -0.0000 23.4922 42.3784 -1.6178 -0.0000 0.0000 0.0000 -20.9999 29.6051 -69.4901 -22.3379 33.3568 -6.7707 0.0000 -0.0000 -1.1368 -101.6871 45.0521 -106.2921 7.1250 -0.0000 -0.0000 -162.0370 49.0671 -178.1438
0.00 0.00 0.00 340.1690 140.1520 149.9570 0.0000 0.0000 0.0000 29.4003 -22.8808 -9.9840 3.0455 10.7684 31.5027 -179.8324 -50.2409 -36.8628 0.0116 -0.6948 -1.9093 0.0000 0.0000 0.0000 21.8221 9.9765 -11.2889 -1.5928 -7.9607 22.5949 1.7880 -23.2887 -4.1165 -0.1926 2.8260 -7.7947 -17.1627 -3.7339 17.3351 -3.2215 -10.0877 -6.2303 8.6706 -3.3452 -14.9099 -1.7671 2.9391 -24.3846 -2.4799 3.9427 -1.6918 -0.1522 1.5380 3.2163 0.0000 -0.0000 0.0000 41.5618 -66.9804 -69.5851 34.6499 -44.5605 -14.5671 -0.0000 0.0000 -34.5901 52.3566 10.8501 13.7151 -7.1250 0.0000 -0.0000 24.0027 45.9110 0.5727 0.0000 -0.0000 0.0000 -27.5275 39.3276 -66.5397 -24.1644 35.3376 -7.8014 0.0000 -0.0000 -3.4296 -104.2554 44.1658 -110.0346 7.1250 -0.0000 -0.0000 -162.6866 46.4204 -179.3747
0.00 0.00 0.00 371.9380 172.9560 152.9310 0.0000 0.0000 0.0000 32.2297 -9.4589 -37.1506 4.4108 12.6878 38.2108 179.4469 -35.4176 -22.6189 0.5039 -4.5507 -12.6313 0.0000 0.0000 0.0000 25.3146 4.3347 -1.7054 -0.4894 -4.4855 12.4468 0.5961 -15.9736 3.2136 -0.5551 4.7726 -13.2612 -12.0865 0.3813 14.9093 -5.5308 -2.3952 -3.8425 1.2192 -0.4007 -12.5719 -2.2425 1.0802 -23.2759 2.9887 1.3365 -1.8400 1.3985 0.5925 2.9728 0.0000 0.0000 0.0000 42.9816 -40.5528 -67.3376 29.9281 -40.8317 -11.3626 -0.0000 0.0000 -37.4530 110.5716 -10.3273 -154.4681 -7.1250 0.0000 -0.0000 153.3800 -8.0122 154.3197 0.0000 0.0000 0.0000 -46.4543 50.2899 -74.4863 -32.2336 42.7326 -12.8991 0.0000 -0.0000 -18.0139 -108.8970 43.5966 -116.4007 7.1250 -0.0000 -0.0000 -164.7063 41.9808 178.8307
0.00 0.00 0.00 406.7190 173.1690 121.6700 0.0000 0.0000 0.0000 37.6520 15.7595 -89.7083 8.4068 16.4105 54.0152 179.9935 -34.7657 -24.6973 0.4319 -4.2173 -11.6889 0.0000 0.0000 0.0000 33.5354 -7.9295 12.2584 0.0000 -0.0000 0.0000 -0.4343 -17.4697 16.0624 -0.3193 3.6320 -10.0436 -16.7125 0.8250 15.5162 -11.7833 -2.4419 -0.7565 -3.2352 -0.4543 -9.5461 -2.4490 -1.5111 -22.1533 2.3060 -0.8454 -4.1693 1.1461 0.0072 2.4900 -0.0000 -0.0000 0.0000 36.0562 -31.5120 -64.5123 18.9849 -29.3999 -5.0234 -0.0000 0.0000 -13.1156 110.0007 -11.0764 -152.1741 -7.1250 0.0000 -0.0000 153.1045 -10.2181 155.3282 -0.0000 -0.0000 0.0000 -13.9857 13.3713 -32.9538 -45.6123 51.0650 -22.7141 0.0000 -0.0000 -46.3224 -38.7765 -40.9437 27.7644 7.1250 -0.0000 -0.0000 -5.4831 -77.9890 4.2242
0.00 0.00 0.00 406.6960 159.8460 108.9380 0.0000 0.0000 0.0000 26.0855 10.8976 -97.8340 14.6086 19.2883 74.0548 -177.8442 -28.8137 -31.2035 0.5529 -4.7633 -13.2346 0.0000 0.0000 0.0000 37.5835 -8.9261 -8.3768 -0.3495 -3.7986 10.5108 0.1162 6.0990 3.1796 -1.2130 6.9866 -19.6758 -19.5395 -1.0321 20.8683 -9.6738 -6.2260 0.2260 1.6420 -1.8182 -10.6036 -1.5125 -0.9508 -21.6386 0.7953 -0.2720 -5.1144 0.5170 0.2246 2.0329 -0.0000 0.0000 0.0000 16.5194 -21.9881 -49.3133 16.6400 -26.3807 -3.9260 -0.0000 0.0000 -19.9128 66.1086 12.0091 25.1604 -7.1250 0.0000 -0.0000 41.9137 52.1793 8.6601 -0.0000 0.0000 0.0000 1.9281 -6.3965 -30.6453 -53.3512 54.2608 -28.8729 0.0000 -0.0000 -47.5616 -37.1346 -41.4868 26.6399 7.1250 -0.0000 -0.0000 -1.0520 -77.9434 0.8091
0.00 0.00 0.00 414.7120 151.5530 100.1450 0.0000 0.0000 0.0000 20.5974 15.0335 -95.3551 19.8425 19.9994 89.5395 -176.7332 -28.5399 -35.9141 0.4986 -4.5269 -12.5639 0.0000 0.0000 0.0000 29.4647 6.5339 -17.5279 -1.0355 -6.4722 18.1610 -0.0490 -10.7404 -16.0110 -0.8861 6.0006 -16.7860 -17.9794 -1.3165 22.1686 -6.7739 -6.3343 1.1832 4.2454 -2.0567 -9.9700 1.1216 0.4264 -21.2865 1.0703 0.7918 -4.5617 0.2290 0.6689 2.1555 -0.0000 -0.0000 0.0000 4.1113 -6.6993 -38.0358 15.5015 -24.8400 -3.4338 -0.0000 0.0000 -29.4082 48.2622 14.8648 16.0426 -7.1250 0.0000 -0.0000 21.0955 50.4891 2.9685 -0.0000 -0.0000 0.0000 15.8790 -8.8371 -32.3320 -59.3663 56.1387 -33.8144 0.0000 -0.0000 -46.1621 -34.5481 -39.1648 23.5011 7.1250 -0.0000 -0.0000 1.2416 -74.6595 -0.8690
0.00 0.00 0.00 415.3700 137.9670 86.9165 0.0000 0.0000 0.0000 12.5634 17.7572 -89.9917 22.2040 19.8831 96.4561 -176.3423 -22.6417 -35.9269 0.5554 -4.7738 -13.2645 0.0000 0.0000 0.0000 7.3945 29.1139 -25.9326 -1.8028 -8.4426 24.0667 0.5445 -27.6544 -35.8991 -0.8049 5.7257 -15.9904 -17.0011 -0.7678 22.6594 -2.5280 -5.1317 2.2839 8.2375 -1.7132 -8.8329 -1.4146 0.1364 -18.9316 6.7684 0.7883 -4.2049 2.5607 0.8663 1.8887 -0.0000 0.0000 0.0000 -12.5341 -14.1562 -17.9091 24.1531 -35.3257 -7.7949 -0.0000 0.0000 -25.0453 46.5521 8.6473 9.0191 -7.1250 0.0000 -0.0000 17.6194 41.7670 -1.4554 -0.0000 0.0000 0.0000 39.7124 -11.3343 -28.8254 -63.8119 57.2430 -37.5304 0.0000 -0.0000 -40.3049 -36.6246 -38.0161 24.5986 7.1250 -0.0000 -0.0000 -3.6873 -74.1997 2.5448
0.00 0.00 0.00 401.1770 132.9850 61.4148 0.0000 0.0000 0.0000 11.3572 20.2201 -79.8974 19.3428 19.9896 88.0781 -176.9807 -10.4327 -31.3630 0.4394 -4.2535 -11.7910 0.0000 0.0000 0.0000 3.3158 34.7430 -11.6603 -1.1965 -6.9407 19.5397 1.2942 -27.2787 -30.5834 -1.3260 7.2924 -20.5847 -12.3217 -1.6559 19.3066 1.9908 -4.4933 1.7644 10.3701 -1.6828 -7.7443 -1.8684 -1.3674 -16.9385 10.1880 -1.5205 -1.0470 3.3338 -0.1582 2.5074 0.0000 0.0000 0.0000 -43.2246 -19.5272 11.8061 78.4494 -59.4898 -50.0140 -0.0000 0.0000 -16.7261 42.1384 2.0369 1.8420 -7.1250 0.0000 -0.0000 12.5367 32.5457 -3.9047 0.0000 0.0000 0.0000 60.3328 -15.4213 -16.1190 -69.1616 58.2939 -42.0568 0.0000 -0.0000 -28.6607 -32.5391 -28.6716 17.0204 7.1250 -0.0000 -0.0000 -2.3931 -62.9341 1.0424
0.00 0.00 0.00 396.6350 131.7070 52.8456 0.0000 0.0000 0.0000 12.1707 19.7930 -73.0091 17.0885 19.7955 81.4595 -177.6125 -8.7788 -27.7990 0.7773 -5.6292 -15.7122 0.0000 0.0000 0.0000 5.4695 27.0009 -6.9456 -0.8822 -5.9876 16.7485 0.5612 -19.7134 -22.9495 -1.8093 8.4571 -24.1112 -11.1344 -1.5551 18.1735 2.3009 -3.9418 1.8898 9.8157 -1.5022 -7.1864 -2.0381 -2.1052 -16.8298 10.3615 -2.7428 1.0814 3.3265 -0.7285 3.2189 -0.0000 0.0000 0.0000 -50.1587 -14.1436 18.5930 104.8768 -59.1470 -72.8468 -0.0000 0.0000 -13.8978 42.3640 -1.4647 -1.3354 -7.1250 0.0000 -0.0000 12.1351 27.9221 -5.1468 -0.0000 0.0000 0.0000 61.7226 -16.2405 -12.5144 -76.9753 59.3492 -48.7449 0.0000 -0.0000 -25.9070 -31.7224 -26.5791 15.4604 7.1250 -0.0000 -0.0000 -2.0547 -60.4312 0.7734
0.00 0.00 0.00 386.2690 132.7860 38.5620 0.0000 0.0000 0.0000 12.2292 18.1628 -61.8824 10.5515 17.7085 61.3163 -179.3968 -0.0432 -14.6630 0.4496 -4.3016 -11.9269 0.0000 0.0000 0.0000 11.1626 17.7415 -3.2260 -0.9417 -6.1807 17.3096 0.6819 -19.6428 -21.5216 -2.1569 9.1854 -26.3771 -9.4817 -1.5432 15.2072 2.2007 -3.3304 1.9148 8.4135 -1.3550 -5.7843 -3.0625 -3.2169 -14.0755 8.8196 -4.2997 3.5268 2.8980 -1.6671 3.5995 -0.0000 0.0000 0.0000 -58.4071 -7.6397 25.7286 128.6974 -53.5075 -92.7821 -0.0000 0.0000 -12.8117 45.5355 -4.8663 -4.9399 -7.1250 0.0000 -0.0000 13.8139 23.0879 -7.5038 -0.0000 0.0000 0.0000 61.7985 -16.4710 -3.2719 -96.8627 59.8213 -65.9397 0.0000 -0.0000 -15.7034 -30.3461 -23.5400 13.1603 7.1250 -0.0000 -0.0000 -1.2801 -56.7597 0.3690
0.00 0.00 0.00 379.9620 136.6650 31.6860 0.0000 0.0000 0.0000 14.7346 13.8763 -52.7908 5.6686 14.0993 43.6367 -179.7770 -1.8243 -8.4701 1.7741 -8.3788 -23.8706 0.0000 0.0000 0.0000 15.0921 16.1649 -4.0115 -1.3860 -7.4489 21.0524 0.8288 -22.9823 -26.3031 -1.7817 8.3958 -23.9229 -7.6820 -2.2068 12.9250 1.6527 -3.7981 1.7628 6.7158 -1.6890 -4.7525 -3.4946 -3.6161 -11.9718 8.2167 -4.9088 4.9982 2.7514 -2.0522 3.7355 0.0000 -0.0000 0.0000 -62.3909 -6.7778 28.8434 135.6147 -50.4638 -98.2364 -0.0000 0.0000 -11.4311 46.4146 -6.3533 -6.6316 -7.1250 0.0000 -0.0000 14.1124 20.9145 -8.3988 0.0000 -0.0000 0.0000 62.0732 -15.2037 3.4768 -109.8720 58.4540 -77.1203 0.0000 -0.0000 -4.9657 -27.9697 -20.0859 10.3355 7.1250 -0.0000 -0.0000 0.4827 -52.4698 -0.0888
0.00 0.00 0.00 376.3040 137.9080 26.3050 0.0000 0.0000 0.0000 21.8885 -1.7610 -37.8521 3.4558 11.3987 33.6365 -178.6384 -14.0945 -21.6977 0.4005 -4.0630 -11.2539 0.0000 0.0000 0.0000 16.0523 15.8753 -2.5570 -1.6604 -8.1197 23.0783 0.8025 -23.2669 -27.0395 -2.1713 9.2141 -26.4674 -7.0033 -2.2469 11.8452 1.0156 -3.6881 2.0815 5.5534 -1.6908 -3.9245 -1.9762 -3.2643 -12.3665 5.6136 -4.6177 7.6855 1.7092 -1.9758 4.4988 -0.0000 -0.0000 0.0000 -66.1276 -6.6485 31.4934 139.0117 -48.6447 -100.8222 -0.0000 0.0000 -10.3156 46.8563 -7.3436 -7.7663 -7.1250 0.0000 -0.0000 14.1978 19.4649 -8.9315 -0.0000 -0.0000 0.0000 61.5138 -14.3446 7.7464 -117.9834 56.8238 -83.9759 0.0000 0.0000 1.5129 -27.9984 -17.9410 9.3011 7.1250 -0.0000 -0.0000 0.0405 -50.1180 -0.0051
0.00 0.00 0.00 373.7220 139.7440 22.6477 0.0000 0.0000 0.0000 26.7901 -22.7820 -24.7776 2.6598 10.1229 29.3756 -171.5716 -20.3343 -54.1833 0.7606 5.5697 15.5410 0.0000 0.0000 0.0000 17.4661 16.9012 -2.7000 -2.2330 -9.3354 26.8501 0.2944 -23.7356 -31.5492 -2.0069 8.8805 -25.4221 -5.6211 -2.4354 10.6628 0.9709 -3.7227 1.9139 4.6667 -1.7433 -3.5385 -1.0272 -2.5306 -11.2533 3.6410 -3.6354 9.0875 1.0287 -1.5841 4.6516 -0.0000 0.0000 0.0000 -71.0383 -6.0416 34.9426 141.7728 -46.9838 -102.8685 -0.0000 0.0000 -8.4331 46.8515 -8.0079 -8.4533 -7.1250 0.0000 -0.0000 14.0487 18.5412 -9.1304 -0.0000 0.0000 0.0000 60.4228 -13.3368 11.4071 -125.3315 54.7132 -90.0548 0.0000 0.0000 3.4200 -27.7301 -17.6984 9.0797 7.1250 -0.0000 -0.0000 0.2661 -49.8050 -0.0315
